<?xml version="1.0" encoding="UTF-8" standalone="no"?>
<svg
   xmlns:dc="http://purl.org/dc/elements/1.1/"
   xmlns:cc="http://creativecommons.org/ns#"
   xmlns:rdf="http://www.w3.org/1999/02/22-rdf-syntax-ns#"
   xmlns:svg="http://www.w3.org/2000/svg"
   xmlns="http://www.w3.org/2000/svg"
   viewBox="0 0 793.33331 1122.6667"
   height="1122.6667"
   width="793.33331"
   xml:space="preserve"
   id="svg815"
   version="1.1"><metadata
     id="metadata821"><rdf:RDF><cc:Work
         rdf:about=""><dc:format>image/svg+xml</dc:format><dc:type
           rdf:resource="http://purl.org/dc/dcmitype/StillImage" /><dc:title></dc:title></cc:Work></rdf:RDF></metadata><defs
     id="defs819"><clipPath
       id="clipPath833"
       clipPathUnits="userSpaceOnUse"><path
         id="path831"
         d="M 0,0 H 595 V 842 H 0 Z" /></clipPath><clipPath
       id="clipPath845"
       clipPathUnits="userSpaceOnUse"><path
         id="path843"
         d="m 43.15185,796.6046 h 293.4864 v 7.40101 H 43.15185 Z" /></clipPath><clipPath
       id="clipPath859"
       clipPathUnits="userSpaceOnUse"><path
         id="path857"
         d="m 22.25453,663.1402 h 314.3837 V 804.0056 H 22.25453 Z" /></clipPath><clipPath
       id="clipPath883"
       clipPathUnits="userSpaceOnUse"><path
         id="path881"
         d="m 24.55598,682.2483 h 14.14186 v 6.92456 H 24.55598 Z" /></clipPath><clipPath
       id="clipPath897"
       clipPathUnits="userSpaceOnUse"><path
         id="path895"
         d="m 24.55598,708.6192 h 14.14186 v 6.92456 H 24.55598 Z" /></clipPath><clipPath
       id="clipPath911"
       clipPathUnits="userSpaceOnUse"><path
         id="path909"
         d="m 24.55598,734.9901 h 14.14186 v 6.92456 H 24.55598 Z" /></clipPath><clipPath
       id="clipPath925"
       clipPathUnits="userSpaceOnUse"><path
         id="path923"
         d="m 24.55598,761.361 h 14.14186 v 6.92456 H 24.55598 Z" /></clipPath><clipPath
       id="clipPath939"
       clipPathUnits="userSpaceOnUse"><path
         id="path937"
         d="m 22.25453,787.7318 h 16.44331 v 6.92456 H 22.25453 Z" /></clipPath><clipPath
       id="clipPath953"
       clipPathUnits="userSpaceOnUse"><path
         id="path951"
         d="m 22.25453,663.1402 h 314.3837 V 804.0056 H 22.25453 Z" /></clipPath><clipPath
       id="clipPath965"
       clipPathUnits="userSpaceOnUse"><path
         id="path963"
         d="m 99.95396,677.1079 h 33.76986 v 6.92456 H 99.95396 Z" /></clipPath><clipPath
       id="clipPath979"
       clipPathUnits="userSpaceOnUse"><path
         id="path977"
         d="m 245.5263,677.1079 h 35.35464 v 6.92456 H 245.5263 Z" /></clipPath><clipPath
       id="clipPath993"
       clipPathUnits="userSpaceOnUse"><path
         id="path991"
         d="m 120,686 h 58 v 29 h -58 z" /></clipPath><clipPath
       id="clipPath1001"
       clipPathUnits="userSpaceOnUse"><path
         id="path999"
         d="M 0,0 H 58 V 29 H 0 Z" /></clipPath><clipPath
       id="clipPath1005"
       clipPathUnits="userSpaceOnUse"><path
         id="path1003"
         d="M 0,0 H 58 V 29 H 0 Z" /></clipPath><clipPath
       id="clipPath1025"
       clipPathUnits="userSpaceOnUse"><path
         id="path1023"
         d="m 266,686 h 60 v 38 h -60 z" /></clipPath><clipPath
       id="clipPath1033"
       clipPathUnits="userSpaceOnUse"><path
         id="path1031"
         d="M 0,0 H 60 V 38 H 0 Z" /></clipPath><clipPath
       id="clipPath1037"
       clipPathUnits="userSpaceOnUse"><path
         id="path1035"
         d="M 0,0 H 59 V 38 H 0 Z" /></clipPath><clipPath
       id="clipPath1057"
       clipPathUnits="userSpaceOnUse"><path
         id="path1055"
         d="m 55,686 h 59 v 27 H 55 Z" /></clipPath><clipPath
       id="clipPath1065"
       clipPathUnits="userSpaceOnUse"><path
         id="path1063"
         d="M 0,0 H 59 V 27 H 0 Z" /></clipPath><clipPath
       id="clipPath1069"
       clipPathUnits="userSpaceOnUse"><path
         id="path1067"
         d="M 0,0 H 59 V 27 H 0 Z" /></clipPath><clipPath
       id="clipPath1089"
       clipPathUnits="userSpaceOnUse"><path
         id="path1087"
         d="m 202,686 h 59 v 103 h -59 z" /></clipPath><clipPath
       id="clipPath1097"
       clipPathUnits="userSpaceOnUse"><path
         id="path1095"
         d="M 0,0 H 59 V 103 H 0 Z" /></clipPath><clipPath
       id="clipPath1101"
       clipPathUnits="userSpaceOnUse"><path
         id="path1099"
         d="M 0,0 H 58 V 103 H 0 Z" /></clipPath><clipPath
       id="clipPath1121"
       clipPathUnits="userSpaceOnUse"><path
         id="path1119"
         d="m 22.25453,663.1402 h 314.3837 V 804.0056 H 22.25453 Z" /></clipPath><clipPath
       id="clipPath1145"
       clipPathUnits="userSpaceOnUse"><path
         id="path1143"
         d="m 34.99059,602.636 h 188.76 v 46.43293 h -188.76 z" /></clipPath><clipPath
       id="clipPath1175"
       clipPathUnits="userSpaceOnUse"><path
         id="path1173"
         d="m 110.7866,624.0235 h 55.36128 v 9.94772 H 110.7866 Z" /></clipPath><clipPath
       id="clipPath1189"
       clipPathUnits="userSpaceOnUse"><path
         id="path1187"
         d="m 166.3246,624.0235 h 56.51047 v 9.94772 H 166.3246 Z" /></clipPath><clipPath
       id="clipPath1203"
       clipPathUnits="userSpaceOnUse"><path
         id="path1201"
         d="m 36.08832,613.6922 h 74.42072 v 9.9528 H 36.08832 Z" /></clipPath><clipPath
       id="clipPath1217"
       clipPathUnits="userSpaceOnUse"><path
         id="path1215"
         d="m 110.8876,613.6922 h 55.26034 v 9.9528 H 110.8876 Z" /></clipPath><clipPath
       id="clipPath1231"
       clipPathUnits="userSpaceOnUse"><path
         id="path1229"
         d="m 166.3246,613.6922 h 56.51047 v 9.9528 H 166.3246 Z" /></clipPath><clipPath
       id="clipPath1245"
       clipPathUnits="userSpaceOnUse"><path
         id="path1243"
         d="m 36.08832,603.5627 h 74.42072 v 9.9528 H 36.08832 Z" /></clipPath><clipPath
       id="clipPath1259"
       clipPathUnits="userSpaceOnUse"><path
         id="path1257"
         d="m 110.8876,603.5627 h 55.26034 v 9.9528 H 110.8876 Z" /></clipPath><clipPath
       id="clipPath1273"
       clipPathUnits="userSpaceOnUse"><path
         id="path1271"
         d="m 166.3246,603.5627 h 56.51047 v 9.9528 H 166.3246 Z" /></clipPath><clipPath
       id="clipPath1287"
       clipPathUnits="userSpaceOnUse"><path
         id="path1285"
         d="m 34.99059,602.636 h 188.76 v 46.43293 h -188.76 z" /></clipPath><clipPath
       id="clipPath1351"
       clipPathUnits="userSpaceOnUse"><path
         id="path1349"
         d="m 290.4454,17.81545 h 14.15734 V 39.98216 H 290.4454 Z" /></clipPath></defs><g
     transform="matrix(1.3333333,0,0,-1.3333333,0,1122.6667)"
     id="g823"><g
       id="g825" /><g
       id="g827"><g
         clip-path="url(#clipPath833)"
         id="g829"><path
           id="path835"
           style="fill:#ffffff;fill-opacity:1;fill-rule:nonzero;stroke:none"
           d="M 0,842 H 595 V -1 H 0 Z" /><path
           id="path837"
           style="fill:#ffffff;fill-opacity:1;fill-rule:nonzero;stroke:none"
           d="M 0,842 H 595 V 0 H 0 Z" /></g></g><g
       id="g839"><g
         clip-path="url(#clipPath845)"
         id="g841"><g
           transform="matrix(0.5047058,0,0,0.5047058,181.0486,798.3993)"
           id="g847"><text
             id="text851"
             style="font-variant:normal;font-weight:normal;font-size:12px;font-family:HelveticaNeue;-inkscape-font-specification:HelveticaNeue;writing-mode:lr-tb;fill:#000000;fill-opacity:1;fill-rule:nonzero;stroke:none"
             transform="scale(1,-1)"><tspan
               id="tspan849"
               y="0"
               x="0 7.776 16.440001 24.216 28.884001">SHA-1</tspan></text>
</g></g></g><g
       id="g853"><g
         clip-path="url(#clipPath859)"
         id="g855"><g
           transform="matrix(0.5047058,0,0,-0.5047058,22.25453,804.0056)"
           id="g861"><path
             id="path863"
             style="fill:none;stroke:#b8b8b8;stroke-width:0.5;stroke-linecap:butt;stroke-linejoin:miter;stroke-miterlimit:4;stroke-dasharray:none;stroke-opacity:1"
             d="M 43.08545,181.3048 H 621.6403" /></g><g
           transform="matrix(0.5047058,0,0,-0.5047058,22.25453,804.0056)"
           id="g865"><path
             id="path867"
             style="fill:none;stroke:#b8b8b8;stroke-width:0.5;stroke-linecap:butt;stroke-linejoin:miter;stroke-miterlimit:4;stroke-dasharray:none;stroke-opacity:1"
             d="M 43.08545,129.7896 H 621.6403" /></g><g
           transform="matrix(0.5047058,0,0,-0.5047058,22.25453,804.0056)"
           id="g869"><path
             id="path871"
             style="fill:none;stroke:#b8b8b8;stroke-width:0.5;stroke-linecap:butt;stroke-linejoin:miter;stroke-miterlimit:4;stroke-dasharray:none;stroke-opacity:1"
             d="M 43.08545,78.27447 H 621.6403" /></g><g
           transform="matrix(0.5047058,0,0,-0.5047058,22.25453,804.0056)"
           id="g873"><path
             id="path875"
             style="fill:none;stroke:#b8b8b8;stroke-width:0.5;stroke-linecap:butt;stroke-linejoin:miter;stroke-miterlimit:4;stroke-dasharray:none;stroke-opacity:1"
             d="M 43.08545,24.77795 H 621.6403" /></g></g></g><g
       id="g877"><g
         clip-path="url(#clipPath883)"
         id="g879"><g
           transform="matrix(0.5047058,0,0,0.5047058,25.31304,683.828)"
           id="g885"><text
             id="text889"
             style="font-variant:normal;font-weight:normal;font-size:10px;font-family:HelveticaNeue;-inkscape-font-specification:HelveticaNeue;writing-mode:lr-tb;fill:#000000;fill-opacity:1;fill-rule:nonzero;stroke:none"
             transform="scale(1,-1)"><tspan
               id="tspan887"
               y="0"
               x="0 5.5599999 8.3400002 13.9 19.459999">0.000</tspan></text>
</g></g></g><g
       id="g891"><g
         clip-path="url(#clipPath897)"
         id="g893"><g
           transform="matrix(0.5047058,0,0,0.5047058,25.31304,710.1989)"
           id="g899"><text
             id="text903"
             style="font-variant:normal;font-weight:normal;font-size:10px;font-family:HelveticaNeue;-inkscape-font-specification:HelveticaNeue;writing-mode:lr-tb;fill:#000000;fill-opacity:1;fill-rule:nonzero;stroke:none"
             transform="scale(1,-1)"><tspan
               id="tspan901"
               y="0"
               x="0 5.5599999 8.3400002 13.9 19.459999">2.750</tspan></text>
</g></g></g><g
       id="g905"><g
         clip-path="url(#clipPath911)"
         id="g907"><g
           transform="matrix(0.5047058,0,0,0.5047058,25.31304,736.5698)"
           id="g913"><text
             id="text917"
             style="font-variant:normal;font-weight:normal;font-size:10px;font-family:HelveticaNeue;-inkscape-font-specification:HelveticaNeue;writing-mode:lr-tb;fill:#000000;fill-opacity:1;fill-rule:nonzero;stroke:none"
             transform="scale(1,-1)"><tspan
               id="tspan915"
               y="0"
               x="0 5.5599999 8.3400002 13.9 19.459999">5.500</tspan></text>
</g></g></g><g
       id="g919"><g
         clip-path="url(#clipPath925)"
         id="g921"><g
           transform="matrix(0.5047058,0,0,0.5047058,25.31304,762.9407)"
           id="g927"><text
             id="text931"
             style="font-variant:normal;font-weight:normal;font-size:10px;font-family:HelveticaNeue;-inkscape-font-specification:HelveticaNeue;writing-mode:lr-tb;fill:#000000;fill-opacity:1;fill-rule:nonzero;stroke:none"
             transform="scale(1,-1)"><tspan
               id="tspan929"
               y="0"
               x="0 5.5599999 8.3400002 13.9 19.459999">8.250</tspan></text>
</g></g></g><g
       id="g933"><g
         clip-path="url(#clipPath939)"
         id="g935"><g
           transform="matrix(0.5047058,0,0,0.5047058,22.50688,789.3116)"
           id="g941"><text
             id="text945"
             style="font-variant:normal;font-weight:normal;font-size:10px;font-family:HelveticaNeue;-inkscape-font-specification:HelveticaNeue;writing-mode:lr-tb;fill:#000000;fill-opacity:1;fill-rule:nonzero;stroke:none"
             transform="scale(1,-1)"><tspan
               id="tspan943"
               y="0"
               x="0 5.5599999 11.12 13.9 19.459999 25.02">11.000</tspan></text>
</g></g></g><g
       id="g947"><g
         clip-path="url(#clipPath953)"
         id="g949"><g
           transform="matrix(0.5047058,0,0,-0.5047058,22.25453,804.0056)"
           id="g955"><path
             id="path957"
             style="fill:none;stroke:#000000;stroke-width:1;stroke-linecap:square;stroke-linejoin:miter;stroke-miterlimit:4;stroke-dasharray:none;stroke-opacity:1"
             d="M 42.09477,234.8013 H 622.631" /></g></g></g><g
       id="g959"><g
         clip-path="url(#clipPath965)"
         id="g961"><g
           transform="matrix(0.5047058,0,0,0.5047058,100.711,678.6876)"
           id="g967"><text
             id="text971"
             style="font-variant:normal;font-weight:normal;font-size:10px;font-family:HelveticaNeue;-inkscape-font-specification:HelveticaNeue;writing-mode:lr-tb;fill:#000000;fill-opacity:1;fill-rule:nonzero;stroke:none"
             transform="scale(1,-1)"><tspan
               id="tspan969"
               y="0"
               x="0 7.2199998 12.96 16.110001 21.48 24.26 26.48 32.040001 35.93 41.490002 47.049999 52.610001 58.169998">Core i7-7700T</tspan></text>
</g></g></g><g
       id="g973"><g
         clip-path="url(#clipPath979)"
         id="g975"><g
           transform="matrix(0.5047058,0,0,0.5047058,246.2833,678.6876)"
           id="g981"><text
             id="text985"
             style="font-variant:normal;font-weight:normal;font-size:10px;font-family:HelveticaNeue;-inkscape-font-specification:HelveticaNeue;writing-mode:lr-tb;fill:#000000;fill-opacity:1;fill-rule:nonzero;stroke:none"
             transform="scale(1,-1)"><tspan
               id="tspan983"
               y="0"
               x="0 6.8499999 11.85 16.65 22.02 27.58 30.360001 35.919998 38.700001 44.259998 49.82 55.380001 60.939999">Ryzen 7 2700X</tspan></text>
</g></g></g><g
       id="g987"><g
         clip-path="url(#clipPath993)"
         id="g989"><g
           transform="matrix(1,0,0,-1,120,715)"
           id="g995"><g
             id="g997" /><g
             id="g1017"><g
               id="g1015"
               clip-path="url(#clipPath1001)"><g
                 id="g1007" /><g
                 id="g1013"><g
                   id="g1011"
                   clip-path="url(#clipPath1005)"><path
                     id="path1009"
                     style="fill:#61d836;fill-opacity:1;fill-rule:nonzero;stroke:none"
                     d="M 0,0 H 58 V 29 H 0 Z" /></g></g></g></g></g></g></g><g
       id="g1019"><g
         clip-path="url(#clipPath1025)"
         id="g1021"><g
           transform="matrix(1,0,0,-1,266,724)"
           id="g1027"><g
             id="g1029" /><g
             id="g1049"><g
               id="g1047"
               clip-path="url(#clipPath1033)"><g
                 id="g1039" /><g
                 id="g1045"><g
                   id="g1043"
                   clip-path="url(#clipPath1037)"><path
                     id="path1041"
                     style="fill:#61d836;fill-opacity:1;fill-rule:nonzero;stroke:none"
                     d="M 0,0 H 59 V 38 H 0 Z" /></g></g></g></g></g></g></g><g
       id="g1051"><g
         clip-path="url(#clipPath1057)"
         id="g1053"><g
           transform="matrix(1,0,0,-1,55,713)"
           id="g1059"><g
             id="g1061" /><g
             id="g1081"><g
               id="g1079"
               clip-path="url(#clipPath1065)"><g
                 id="g1071" /><g
                 id="g1077"><g
                   id="g1075"
                   clip-path="url(#clipPath1069)"><path
                     id="path1073"
                     style="fill:#00a2ff;fill-opacity:1;fill-rule:nonzero;stroke:none"
                     d="M 0,0 H 59 V 27 H 0 Z" /></g></g></g></g></g></g></g><g
       id="g1083"><g
         clip-path="url(#clipPath1089)"
         id="g1085"><g
           transform="matrix(1,0,0,-1,202,789)"
           id="g1091"><g
             id="g1093" /><g
             id="g1113"><g
               id="g1111"
               clip-path="url(#clipPath1097)"><g
                 id="g1103" /><g
                 id="g1109"><g
                   id="g1107"
                   clip-path="url(#clipPath1101)"><path
                     id="path1105"
                     style="fill:#00a2ff;fill-opacity:1;fill-rule:nonzero;stroke:none"
                     d="M 0,0 H 58 V 103 H 0 Z" /></g></g></g></g></g></g></g><g
       id="g1115"><g
         clip-path="url(#clipPath1121)"
         id="g1117"><path
           id="path1123"
           style="fill:#00a2ff;fill-opacity:1;fill-rule:nonzero;stroke:none"
           d="m 140,669 h 5 v -5 h -5 z" /><g
           transform="matrix(0.5047058,0,0,0.5047058,148.235,664.2152)"
           id="g1125"><text
             id="text1129"
             style="font-variant:normal;font-weight:normal;font-size:10px;font-family:HelveticaNeue;-inkscape-font-specification:HelveticaNeue;writing-mode:lr-tb;fill:#000000;fill-opacity:1;fill-rule:nonzero;stroke:none"
             transform="scale(1,-1)"><tspan
               id="tspan1127"
               y="0"
               x="0 5.1900001 12.23">JDK</tspan></text>
</g><path
           id="path1131"
           style="fill:#61d836;fill-opacity:1;fill-rule:nonzero;stroke:none"
           d="m 194,669 h 4 v -5 h -4 z" /><g
           transform="matrix(0.5047058,0,0,0.5047058,201.5352,664.2152)"
           id="g1133"><text
             id="text1137"
             style="font-variant:normal;font-weight:normal;font-size:10px;font-family:HelveticaNeue;-inkscape-font-specification:HelveticaNeue;writing-mode:lr-tb;fill:#000000;fill-opacity:1;fill-rule:nonzero;stroke:none"
             transform="scale(1,-1)"><tspan
               id="tspan1135"
               y="0"
               x="0 6.8499999 12.59 18.15 23.709999 29.08 34.080002 36.860001 44.080002 49.450001 54.450001 57.599998 59.82">Bouncy Castle</tspan></text>
</g></g></g></g></svg>