<?xml version="1.0" encoding="UTF-8" standalone="no"?>
<svg
   xmlns:dc="http://purl.org/dc/elements/1.1/"
   xmlns:cc="http://creativecommons.org/ns#"
   xmlns:rdf="http://www.w3.org/1999/02/22-rdf-syntax-ns#"
   xmlns:svg="http://www.w3.org/2000/svg"
   xmlns="http://www.w3.org/2000/svg"
   viewBox="0 0 418.10248 186.30527"
   height="186.30528"
   width="418.10248"
   xml:space="preserve"
   id="svg10"
   version="1.1"><metadata
     id="metadata16"><rdf:RDF><cc:Work
         rdf:about=""><dc:format>image/svg+xml</dc:format><dc:type
           rdf:resource="http://purl.org/dc/dcmitype/StillImage" /><dc:title></dc:title></cc:Work></rdf:RDF></metadata><defs
     id="defs14"><clipPath
       id="clipPath28"
       clipPathUnits="userSpaceOnUse"><path
         id="path26"
         d="M 0,0 H 595 V 842 H 0 Z" /></clipPath><clipPath
       id="clipPath40"
       clipPathUnits="userSpaceOnUse"><path
         id="path38"
         d="m 43.15185,796.6046 h 293.4864 v 7.40101 H 43.15185 Z" /></clipPath><clipPath
       id="clipPath54"
       clipPathUnits="userSpaceOnUse"><path
         id="path52"
         d="m 22.25453,663.1402 h 314.3837 V 804.0056 H 22.25453 Z" /></clipPath><clipPath
       id="clipPath78"
       clipPathUnits="userSpaceOnUse"><path
         id="path76"
         d="m 24.55598,682.2483 h 14.14186 v 6.92456 H 24.55598 Z" /></clipPath><clipPath
       id="clipPath92"
       clipPathUnits="userSpaceOnUse"><path
         id="path90"
         d="m 24.55598,708.6192 h 14.14186 v 6.92456 H 24.55598 Z" /></clipPath><clipPath
       id="clipPath106"
       clipPathUnits="userSpaceOnUse"><path
         id="path104"
         d="m 24.55598,734.9901 h 14.14186 v 6.92456 H 24.55598 Z" /></clipPath><clipPath
       id="clipPath120"
       clipPathUnits="userSpaceOnUse"><path
         id="path118"
         d="m 24.55598,761.361 h 14.14186 v 6.92456 H 24.55598 Z" /></clipPath><clipPath
       id="clipPath134"
       clipPathUnits="userSpaceOnUse"><path
         id="path132"
         d="m 22.25453,787.7318 h 16.44331 v 6.92456 H 22.25453 Z" /></clipPath><clipPath
       id="clipPath148"
       clipPathUnits="userSpaceOnUse"><path
         id="path146"
         d="m 22.25453,663.1402 h 314.3837 V 804.0056 H 22.25453 Z" /></clipPath><clipPath
       id="clipPath160"
       clipPathUnits="userSpaceOnUse"><path
         id="path158"
         d="m 99.95396,677.1079 h 33.76986 v 6.92456 H 99.95396 Z" /></clipPath><clipPath
       id="clipPath174"
       clipPathUnits="userSpaceOnUse"><path
         id="path172"
         d="m 245.5263,677.1079 h 35.35464 v 6.92456 H 245.5263 Z" /></clipPath><clipPath
       id="clipPath188"
       clipPathUnits="userSpaceOnUse"><path
         id="path186"
         d="m 120,686 h 58 v 29 h -58 z" /></clipPath><clipPath
       id="clipPath196"
       clipPathUnits="userSpaceOnUse"><path
         id="path194"
         d="M 0,0 H 58 V 29 H 0 Z" /></clipPath><clipPath
       id="clipPath200"
       clipPathUnits="userSpaceOnUse"><path
         id="path198"
         d="M 0,0 H 58 V 29 H 0 Z" /></clipPath><clipPath
       id="clipPath220"
       clipPathUnits="userSpaceOnUse"><path
         id="path218"
         d="m 266,686 h 60 v 38 h -60 z" /></clipPath><clipPath
       id="clipPath228"
       clipPathUnits="userSpaceOnUse"><path
         id="path226"
         d="M 0,0 H 60 V 38 H 0 Z" /></clipPath><clipPath
       id="clipPath232"
       clipPathUnits="userSpaceOnUse"><path
         id="path230"
         d="M 0,0 H 59 V 38 H 0 Z" /></clipPath><clipPath
       id="clipPath252"
       clipPathUnits="userSpaceOnUse"><path
         id="path250"
         d="m 55,686 h 59 v 27 H 55 Z" /></clipPath><clipPath
       id="clipPath260"
       clipPathUnits="userSpaceOnUse"><path
         id="path258"
         d="M 0,0 H 59 V 27 H 0 Z" /></clipPath><clipPath
       id="clipPath264"
       clipPathUnits="userSpaceOnUse"><path
         id="path262"
         d="M 0,0 H 59 V 27 H 0 Z" /></clipPath><clipPath
       id="clipPath284"
       clipPathUnits="userSpaceOnUse"><path
         id="path282"
         d="m 202,686 h 59 v 103 h -59 z" /></clipPath><clipPath
       id="clipPath292"
       clipPathUnits="userSpaceOnUse"><path
         id="path290"
         d="M 0,0 H 59 V 103 H 0 Z" /></clipPath><clipPath
       id="clipPath296"
       clipPathUnits="userSpaceOnUse"><path
         id="path294"
         d="M 0,0 H 58 V 103 H 0 Z" /></clipPath><clipPath
       id="clipPath316"
       clipPathUnits="userSpaceOnUse"><path
         id="path314"
         d="m 22.25453,663.1402 h 314.3837 V 804.0056 H 22.25453 Z" /></clipPath><clipPath
       id="clipPath340"
       clipPathUnits="userSpaceOnUse"><path
         id="path338"
         d="m 34.99059,602.636 h 188.76 v 46.43293 h -188.76 z" /></clipPath><clipPath
       id="clipPath370"
       clipPathUnits="userSpaceOnUse"><path
         id="path368"
         d="m 110.7866,624.0235 h 55.36128 v 9.94772 H 110.7866 Z" /></clipPath><clipPath
       id="clipPath384"
       clipPathUnits="userSpaceOnUse"><path
         id="path382"
         d="m 166.3246,624.0235 h 56.51047 v 9.94772 H 166.3246 Z" /></clipPath><clipPath
       id="clipPath398"
       clipPathUnits="userSpaceOnUse"><path
         id="path396"
         d="m 36.08832,613.6922 h 74.42072 v 9.9528 H 36.08832 Z" /></clipPath><clipPath
       id="clipPath412"
       clipPathUnits="userSpaceOnUse"><path
         id="path410"
         d="m 110.8876,613.6922 h 55.26034 v 9.9528 H 110.8876 Z" /></clipPath><clipPath
       id="clipPath426"
       clipPathUnits="userSpaceOnUse"><path
         id="path424"
         d="m 166.3246,613.6922 h 56.51047 v 9.9528 H 166.3246 Z" /></clipPath><clipPath
       id="clipPath440"
       clipPathUnits="userSpaceOnUse"><path
         id="path438"
         d="m 36.08832,603.5627 h 74.42072 v 9.9528 H 36.08832 Z" /></clipPath><clipPath
       id="clipPath454"
       clipPathUnits="userSpaceOnUse"><path
         id="path452"
         d="m 110.8876,603.5627 h 55.26034 v 9.9528 H 110.8876 Z" /></clipPath><clipPath
       id="clipPath468"
       clipPathUnits="userSpaceOnUse"><path
         id="path466"
         d="m 166.3246,603.5627 h 56.51047 v 9.9528 H 166.3246 Z" /></clipPath><clipPath
       id="clipPath482"
       clipPathUnits="userSpaceOnUse"><path
         id="path480"
         d="m 34.99059,602.636 h 188.76 v 46.43293 h -188.76 z" /></clipPath><clipPath
       id="clipPath546"
       clipPathUnits="userSpaceOnUse"><path
         id="path544"
         d="m 290.4454,17.81545 h 14.15734 V 39.98216 H 290.4454 Z" /></clipPath></defs><g
     transform="matrix(1.3333333,0,0,-1.3333333,-30.748488,1070.5258)"
     id="g18"><g
       id="g20" /><g
       id="g34"><g
         clip-path="url(#clipPath40)"
         id="g36"><g
           transform="matrix(0.5047058,0,0,0.5047058,181.0486,798.3993)"
           id="g42"><text
             id="text46"
             style="font-variant:normal;font-weight:normal;font-size:12px;font-family:HelveticaNeue;-inkscape-font-specification:HelveticaNeue;writing-mode:lr-tb;fill:#000000;fill-opacity:1;fill-rule:nonzero;stroke:none"
             transform="scale(1,-1)"><tspan
               id="tspan44"
               y="0"
               x="0 7.776 16.440001 24.216 28.884001">SHA-1</tspan></text>
</g></g></g><g
       id="g48"><g
         clip-path="url(#clipPath54)"
         id="g50"><g
           transform="matrix(0.5047058,0,0,-0.5047058,22.25453,804.0056)"
           id="g56"><path
             id="path58"
             style="fill:none;stroke:#b8b8b8;stroke-width:0.5;stroke-linecap:butt;stroke-linejoin:miter;stroke-miterlimit:4;stroke-dasharray:none;stroke-opacity:1"
             d="M 43.08545,181.3048 H 621.6403" /></g><g
           transform="matrix(0.5047058,0,0,-0.5047058,22.25453,804.0056)"
           id="g60"><path
             id="path62"
             style="fill:none;stroke:#b8b8b8;stroke-width:0.5;stroke-linecap:butt;stroke-linejoin:miter;stroke-miterlimit:4;stroke-dasharray:none;stroke-opacity:1"
             d="M 43.08545,129.7896 H 621.6403" /></g><g
           transform="matrix(0.5047058,0,0,-0.5047058,22.25453,804.0056)"
           id="g64"><path
             id="path66"
             style="fill:none;stroke:#b8b8b8;stroke-width:0.5;stroke-linecap:butt;stroke-linejoin:miter;stroke-miterlimit:4;stroke-dasharray:none;stroke-opacity:1"
             d="M 43.08545,78.27447 H 621.6403" /></g><g
           transform="matrix(0.5047058,0,0,-0.5047058,22.25453,804.0056)"
           id="g68"><path
             id="path70"
             style="fill:none;stroke:#b8b8b8;stroke-width:0.5;stroke-linecap:butt;stroke-linejoin:miter;stroke-miterlimit:4;stroke-dasharray:none;stroke-opacity:1"
             d="M 43.08545,24.77795 H 621.6403" /></g></g></g><g
       id="g72"><g
         clip-path="url(#clipPath78)"
         id="g74"><g
           transform="matrix(0.5047058,0,0,0.5047058,25.31304,683.828)"
           id="g80"><text
             id="text84"
             style="font-variant:normal;font-weight:normal;font-size:10px;font-family:HelveticaNeue;-inkscape-font-specification:HelveticaNeue;writing-mode:lr-tb;fill:#000000;fill-opacity:1;fill-rule:nonzero;stroke:none"
             transform="scale(1,-1)"><tspan
               id="tspan82"
               y="0"
               x="0 5.5599999 8.3400002 13.9 19.459999">0.000</tspan></text>
</g></g></g><g
       id="g86"><g
         clip-path="url(#clipPath92)"
         id="g88"><g
           transform="matrix(0.5047058,0,0,0.5047058,25.31304,710.1989)"
           id="g94"><text
             id="text98"
             style="font-variant:normal;font-weight:normal;font-size:10px;font-family:HelveticaNeue;-inkscape-font-specification:HelveticaNeue;writing-mode:lr-tb;fill:#000000;fill-opacity:1;fill-rule:nonzero;stroke:none"
             transform="scale(1,-1)"><tspan
               id="tspan96"
               y="0"
               x="0 5.5599999 8.3400002 13.9 19.459999">2.750</tspan></text>
</g></g></g><g
       id="g100"><g
         clip-path="url(#clipPath106)"
         id="g102"><g
           transform="matrix(0.5047058,0,0,0.5047058,25.31304,736.5698)"
           id="g108"><text
             id="text112"
             style="font-variant:normal;font-weight:normal;font-size:10px;font-family:HelveticaNeue;-inkscape-font-specification:HelveticaNeue;writing-mode:lr-tb;fill:#000000;fill-opacity:1;fill-rule:nonzero;stroke:none"
             transform="scale(1,-1)"><tspan
               id="tspan110"
               y="0"
               x="0 5.5599999 8.3400002 13.9 19.459999">5.500</tspan></text>
</g></g></g><g
       id="g114"><g
         clip-path="url(#clipPath120)"
         id="g116"><g
           transform="matrix(0.5047058,0,0,0.5047058,25.31304,762.9407)"
           id="g122"><text
             id="text126"
             style="font-variant:normal;font-weight:normal;font-size:10px;font-family:HelveticaNeue;-inkscape-font-specification:HelveticaNeue;writing-mode:lr-tb;fill:#000000;fill-opacity:1;fill-rule:nonzero;stroke:none"
             transform="scale(1,-1)"><tspan
               id="tspan124"
               y="0"
               x="0 5.5599999 8.3400002 13.9 19.459999">8.250</tspan></text>
</g></g></g><g
       id="g128"><g
         clip-path="url(#clipPath134)"
         id="g130"><g
           transform="matrix(0.5047058,0,0,0.5047058,22.50688,789.3116)"
           id="g136"><text
             id="text140"
             style="font-variant:normal;font-weight:normal;font-size:10px;font-family:HelveticaNeue;-inkscape-font-specification:HelveticaNeue;writing-mode:lr-tb;fill:#000000;fill-opacity:1;fill-rule:nonzero;stroke:none"
             transform="scale(1,-1)"><tspan
               id="tspan138"
               y="0"
               x="0 5.5599999 11.12 13.9 19.459999 25.02">11.000</tspan></text>
</g></g></g><g
       id="g142"><g
         clip-path="url(#clipPath148)"
         id="g144"><g
           transform="matrix(0.5047058,0,0,-0.5047058,22.25453,804.0056)"
           id="g150"><path
             id="path152"
             style="fill:none;stroke:#000000;stroke-width:1;stroke-linecap:square;stroke-linejoin:miter;stroke-miterlimit:4;stroke-dasharray:none;stroke-opacity:1"
             d="M 42.09477,234.8013 H 622.631" /></g></g></g><g
       id="g154"><g
         clip-path="url(#clipPath160)"
         id="g156"><g
           transform="matrix(0.5047058,0,0,0.5047058,100.711,678.6876)"
           id="g162"><text
             id="text166"
             style="font-variant:normal;font-weight:normal;font-size:10px;font-family:HelveticaNeue;-inkscape-font-specification:HelveticaNeue;writing-mode:lr-tb;fill:#000000;fill-opacity:1;fill-rule:nonzero;stroke:none"
             transform="scale(1,-1)"><tspan
               id="tspan164"
               y="0"
               x="0 7.2199998 12.96 16.110001 21.48 24.26 26.48 32.040001 35.93 41.490002 47.049999 52.610001 58.169998">Core i7-7700T</tspan></text>
</g></g></g><g
       id="g168"><g
         clip-path="url(#clipPath174)"
         id="g170"><g
           transform="matrix(0.5047058,0,0,0.5047058,246.2833,678.6876)"
           id="g176"><text
             id="text180"
             style="font-variant:normal;font-weight:normal;font-size:10px;font-family:HelveticaNeue;-inkscape-font-specification:HelveticaNeue;writing-mode:lr-tb;fill:#000000;fill-opacity:1;fill-rule:nonzero;stroke:none"
             transform="scale(1,-1)"><tspan
               id="tspan178"
               y="0"
               x="0 6.8499999 11.85 16.65 22.02 27.58 30.360001 35.919998 38.700001 44.259998 49.82 55.380001 60.939999">Ryzen 7 2700X</tspan></text>
</g></g></g><g
       id="g182"><g
         clip-path="url(#clipPath188)"
         id="g184"><g
           transform="matrix(1,0,0,-1,120,715)"
           id="g190"><g
             id="g192" /><g
             id="g212"><g
               id="g210"
               clip-path="url(#clipPath196)"><g
                 id="g202" /><g
                 id="g208"><g
                   id="g206"
                   clip-path="url(#clipPath200)"><path
                     id="path204"
                     style="fill:#61d836;fill-opacity:1;fill-rule:nonzero;stroke:none"
                     d="M 0,0 H 58 V 29 H 0 Z" /></g></g></g></g></g></g></g><g
       id="g214"><g
         clip-path="url(#clipPath220)"
         id="g216"><g
           transform="matrix(1,0,0,-1,266,724)"
           id="g222"><g
             id="g224" /><g
             id="g244"><g
               id="g242"
               clip-path="url(#clipPath228)"><g
                 id="g234" /><g
                 id="g240"><g
                   id="g238"
                   clip-path="url(#clipPath232)"><path
                     id="path236"
                     style="fill:#61d836;fill-opacity:1;fill-rule:nonzero;stroke:none"
                     d="M 0,0 H 59 V 38 H 0 Z" /></g></g></g></g></g></g></g><g
       id="g246"><g
         clip-path="url(#clipPath252)"
         id="g248"><g
           transform="matrix(1,0,0,-1,55,713)"
           id="g254"><g
             id="g256" /><g
             id="g276"><g
               id="g274"
               clip-path="url(#clipPath260)"><g
                 id="g266" /><g
                 id="g272"><g
                   id="g270"
                   clip-path="url(#clipPath264)"><path
                     id="path268"
                     style="fill:#00a2ff;fill-opacity:1;fill-rule:nonzero;stroke:none"
                     d="M 0,0 H 59 V 27 H 0 Z" /></g></g></g></g></g></g></g><g
       id="g278"><g
         clip-path="url(#clipPath284)"
         id="g280"><g
           transform="matrix(1,0,0,-1,202,789)"
           id="g286"><g
             id="g288" /><g
             id="g308"><g
               id="g306"
               clip-path="url(#clipPath292)"><g
                 id="g298" /><g
                 id="g304"><g
                   id="g302"
                   clip-path="url(#clipPath296)"><path
                     id="path300"
                     style="fill:#00a2ff;fill-opacity:1;fill-rule:nonzero;stroke:none"
                     d="M 0,0 H 58 V 103 H 0 Z" /></g></g></g></g></g></g></g><g
       id="g310"><g
         clip-path="url(#clipPath316)"
         id="g312"><path
           id="path318"
           style="fill:#00a2ff;fill-opacity:1;fill-rule:nonzero;stroke:none"
           d="m 140,669 h 5 v -5 h -5 z" /><g
           transform="matrix(0.5047058,0,0,0.5047058,148.235,664.2152)"
           id="g320"><text
             id="text324"
             style="font-variant:normal;font-weight:normal;font-size:10px;font-family:HelveticaNeue;-inkscape-font-specification:HelveticaNeue;writing-mode:lr-tb;fill:#000000;fill-opacity:1;fill-rule:nonzero;stroke:none"
             transform="scale(1,-1)"><tspan
               id="tspan322"
               y="0"
               x="0 5.1900001 12.23">JDK</tspan></text>
</g><path
           id="path326"
           style="fill:#61d836;fill-opacity:1;fill-rule:nonzero;stroke:none"
           d="m 194,669 h 4 v -5 h -4 z" /><g
           transform="matrix(0.5047058,0,0,0.5047058,201.5352,664.2152)"
           id="g328"><text
             id="text332"
             style="font-variant:normal;font-weight:normal;font-size:10px;font-family:HelveticaNeue;-inkscape-font-specification:HelveticaNeue;writing-mode:lr-tb;fill:#000000;fill-opacity:1;fill-rule:nonzero;stroke:none"
             transform="scale(1,-1)"><tspan
               id="tspan330"
               y="0"
               x="0 6.8499999 12.59 18.15 23.709999 29.08 34.080002 36.860001 44.080002 49.450001 54.450001 57.599998 59.82">Bouncy Castle</tspan></text>
</g></g></g></g></svg>