<?xml version="1.0" encoding="UTF-8" standalone="no"?>
<svg
   xmlns:dc="http://purl.org/dc/elements/1.1/"
   xmlns:cc="http://creativecommons.org/ns#"
   xmlns:rdf="http://www.w3.org/1999/02/22-rdf-syntax-ns#"
   xmlns:svg="http://www.w3.org/2000/svg"
   xmlns="http://www.w3.org/2000/svg"
   viewBox="0 0 414.20422 184.5682"
   height="184.56821"
   width="414.20422"
   xml:space="preserve"
   id="svg766"
   version="1.1"><metadata
     id="metadata772"><rdf:RDF><cc:Work
         rdf:about=""><dc:format>image/svg+xml</dc:format><dc:type
           rdf:resource="http://purl.org/dc/dcmitype/StillImage" /><dc:title></dc:title></cc:Work></rdf:RDF></metadata><defs
     id="defs770"><clipPath
       id="clipPath784"
       clipPathUnits="userSpaceOnUse"><path
         id="path782"
         d="M 0,0 H 595 V 842 H 0 Z" /></clipPath><clipPath
       id="clipPath796"
       clipPathUnits="userSpaceOnUse"><path
         id="path794"
         d="m 43.08517,797.36 h 290.75 v 7.332 h -290.75 z" /></clipPath><clipPath
       id="clipPath810"
       clipPathUnits="userSpaceOnUse"><path
         id="path808"
         d="m 22.38269,665.14 h 311.4525 V 804.692 H 22.38269 Z" /></clipPath><clipPath
       id="clipPath834"
       clipPathUnits="userSpaceOnUse"><path
         id="path832"
         d="m 24.66269,684.07 h 14.01 v 6.86 h -14.01 z" /></clipPath><clipPath
       id="clipPath848"
       clipPathUnits="userSpaceOnUse"><path
         id="path846"
         d="m 24.66269,710.195 h 14.01 v 6.86 h -14.01 z" /></clipPath><clipPath
       id="clipPath862"
       clipPathUnits="userSpaceOnUse"><path
         id="path860"
         d="m 24.66269,736.32 h 14.01 v 6.86 h -14.01 z" /></clipPath><clipPath
       id="clipPath876"
       clipPathUnits="userSpaceOnUse"><path
         id="path874"
         d="m 24.66269,762.445 h 14.01 v 6.86 h -14.01 z" /></clipPath><clipPath
       id="clipPath890"
       clipPathUnits="userSpaceOnUse"><path
         id="path888"
         d="m 22.38269,788.57 h 16.29 v 6.86 h -16.29 z" /></clipPath><clipPath
       id="clipPath904"
       clipPathUnits="userSpaceOnUse"><path
         id="path902"
         d="m 22.38269,665.14 h 311.4525 V 804.692 H 22.38269 Z" /></clipPath><clipPath
       id="clipPath916"
       clipPathUnits="userSpaceOnUse"><path
         id="path914"
         d="m 99.35767,678.9775 h 33.455 v 6.86 h -33.455 z" /></clipPath><clipPath
       id="clipPath930"
       clipPathUnits="userSpaceOnUse"><path
         id="path928"
         d="m 243.5727,678.9775 h 35.025 v 6.86 h -35.025 z" /></clipPath><clipPath
       id="clipPath944"
       clipPathUnits="userSpaceOnUse"><path
         id="path942"
         d="m 119,688 h 58 v 22 h -58 z" /></clipPath><clipPath
       id="clipPath952"
       clipPathUnits="userSpaceOnUse"><path
         id="path950"
         d="M 0,0 H 58 V 22 H 0 Z" /></clipPath><clipPath
       id="clipPath956"
       clipPathUnits="userSpaceOnUse"><path
         id="path954"
         d="M 0,0 H 58 V 22 H 0 Z" /></clipPath><clipPath
       id="clipPath976"
       clipPathUnits="userSpaceOnUse"><path
         id="path974"
         d="m 264,688 h 59 v 27 h -59 z" /></clipPath><clipPath
       id="clipPath984"
       clipPathUnits="userSpaceOnUse"><path
         id="path982"
         d="M 0,0 H 59 V 27 H 0 Z" /></clipPath><clipPath
       id="clipPath988"
       clipPathUnits="userSpaceOnUse"><path
         id="path986"
         d="M 0,0 H 58 V 27 H 0 Z" /></clipPath><clipPath
       id="clipPath1008"
       clipPathUnits="userSpaceOnUse"><path
         id="path1006"
         d="m 55,688 h 58 v 34 H 55 Z" /></clipPath><clipPath
       id="clipPath1016"
       clipPathUnits="userSpaceOnUse"><path
         id="path1014"
         d="M 0,0 H 58 V 34 H 0 Z" /></clipPath><clipPath
       id="clipPath1020"
       clipPathUnits="userSpaceOnUse"><path
         id="path1018"
         d="M 0,0 H 58 V 34 H 0 Z" /></clipPath><clipPath
       id="clipPath1040"
       clipPathUnits="userSpaceOnUse"><path
         id="path1038"
         d="m 200,688 h 58 v 99 h -58 z" /></clipPath><clipPath
       id="clipPath1048"
       clipPathUnits="userSpaceOnUse"><path
         id="path1046"
         d="M 0,0 H 58 V 99 H 0 Z" /></clipPath><clipPath
       id="clipPath1052"
       clipPathUnits="userSpaceOnUse"><path
         id="path1050"
         d="M 0,0 H 58 V 99 H 0 Z" /></clipPath><clipPath
       id="clipPath1072"
       clipPathUnits="userSpaceOnUse"><path
         id="path1070"
         d="m 22.38269,665.14 h 311.4525 V 804.692 H 22.38269 Z" /></clipPath><clipPath
       id="clipPath1096"
       clipPathUnits="userSpaceOnUse"><path
         id="path1094"
         d="m 35,605.2 h 187 v 46 H 35 Z" /></clipPath><clipPath
       id="clipPath1126"
       clipPathUnits="userSpaceOnUse"><path
         id="path1124"
         d="m 110.0893,626.3881 h 54.8451 v 9.85496 h -54.8451 z" /></clipPath><clipPath
       id="clipPath1140"
       clipPathUnits="userSpaceOnUse"><path
         id="path1138"
         d="m 165.1094,626.3881 h 55.98358 v 9.85496 H 165.1094 Z" /></clipPath><clipPath
       id="clipPath1154"
       clipPathUnits="userSpaceOnUse"><path
         id="path1152"
         d="m 36.0875,616.1531 h 73.72684 v 9.86 H 36.0875 Z" /></clipPath><clipPath
       id="clipPath1168"
       clipPathUnits="userSpaceOnUse"><path
         id="path1166"
         d="m 110.1893,616.1531 h 54.7451 v 9.86 h -54.7451 z" /></clipPath><clipPath
       id="clipPath1182"
       clipPathUnits="userSpaceOnUse"><path
         id="path1180"
         d="m 165.1094,616.1531 h 55.98358 v 9.86 H 165.1094 Z" /></clipPath><clipPath
       id="clipPath1196"
       clipPathUnits="userSpaceOnUse"><path
         id="path1194"
         d="m 36.0875,606.1181 h 73.72684 v 9.86 H 36.0875 Z" /></clipPath><clipPath
       id="clipPath1210"
       clipPathUnits="userSpaceOnUse"><path
         id="path1208"
         d="m 110.1893,606.1181 h 54.7451 v 9.86 h -54.7451 z" /></clipPath><clipPath
       id="clipPath1224"
       clipPathUnits="userSpaceOnUse"><path
         id="path1222"
         d="m 165.1094,606.1181 h 55.98358 v 9.86 H 165.1094 Z" /></clipPath><clipPath
       id="clipPath1238"
       clipPathUnits="userSpaceOnUse"><path
         id="path1236"
         d="m 35,605.2 h 187 v 46 H 35 Z" /></clipPath><clipPath
       id="clipPath1302"
       clipPathUnits="userSpaceOnUse"><path
         id="path1300"
         d="m 290.419,18 h 14.16196 V 39.49498 H 290.419 Z" /></clipPath></defs><g
     transform="matrix(1.3333333,0,0,-1.3333333,-30.909341,1071.4548)"
     id="g774"><g
       id="g776" /><g
       id="g790"><g
         clip-path="url(#clipPath796)"
         id="g792"><g
           transform="matrix(0.5,0,0,0.5,176.3602,799.138)"
           id="g798"><text
             id="text802"
             style="font-variant:normal;font-weight:normal;font-size:12px;font-family:HelveticaNeue;-inkscape-font-specification:HelveticaNeue;writing-mode:lr-tb;fill:#000000;fill-opacity:1;fill-rule:nonzero;stroke:none"
             transform="scale(1,-1)"><tspan
               id="tspan800"
               y="0"
               x="0 7.776 16.440001 24.216 28.884001 35.556 42.228001">SHA-256</tspan></text>
</g></g></g><g
       id="g804"><g
         clip-path="url(#clipPath810)"
         id="g806"><g
           transform="matrix(0.5,0,0,-0.5,22.38269,804.692)"
           id="g812"><path
             id="path814"
             style="fill:none;stroke:#b8b8b8;stroke-width:0.5;stroke-linecap:butt;stroke-linejoin:miter;stroke-miterlimit:4;stroke-dasharray:none;stroke-opacity:1"
             d="M 43.23463,182.384 H 623.2346" /></g><g
           transform="matrix(0.5,0,0,-0.5,22.38269,804.692)"
           id="g816"><path
             id="path818"
             style="fill:none;stroke:#b8b8b8;stroke-width:0.5;stroke-linecap:butt;stroke-linejoin:miter;stroke-miterlimit:4;stroke-dasharray:none;stroke-opacity:1"
             d="M 43.23463,130.384 H 623.2346" /></g><g
           transform="matrix(0.5,0,0,-0.5,22.38269,804.692)"
           id="g820"><path
             id="path822"
             style="fill:none;stroke:#b8b8b8;stroke-width:0.5;stroke-linecap:butt;stroke-linejoin:miter;stroke-miterlimit:4;stroke-dasharray:none;stroke-opacity:1"
             d="M 43.23463,78.384 H 623.2346" /></g><g
           transform="matrix(0.5,0,0,-0.5,22.38269,804.692)"
           id="g824"><path
             id="path826"
             style="fill:none;stroke:#b8b8b8;stroke-width:0.5;stroke-linecap:butt;stroke-linejoin:miter;stroke-miterlimit:4;stroke-dasharray:none;stroke-opacity:1"
             d="M 43.23463,24.384 H 623.2346" /></g></g></g><g
       id="g828"><g
         clip-path="url(#clipPath834)"
         id="g830"><g
           transform="matrix(0.5,0,0,0.5,25.41269,685.635)"
           id="g836"><text
             id="text840"
             style="font-variant:normal;font-weight:normal;font-size:10px;font-family:HelveticaNeue;-inkscape-font-specification:HelveticaNeue;writing-mode:lr-tb;fill:#000000;fill-opacity:1;fill-rule:nonzero;stroke:none"
             transform="scale(1,-1)"><tspan
               id="tspan838"
               y="0"
               x="0 5.5599999 8.3400002 13.9 19.459999">0.000</tspan></text>
</g></g></g><g
       id="g842"><g
         clip-path="url(#clipPath848)"
         id="g844"><g
           transform="matrix(0.5,0,0,0.5,25.41269,711.76)"
           id="g850"><text
             id="text854"
             style="font-variant:normal;font-weight:normal;font-size:10px;font-family:HelveticaNeue;-inkscape-font-specification:HelveticaNeue;writing-mode:lr-tb;fill:#000000;fill-opacity:1;fill-rule:nonzero;stroke:none"
             transform="scale(1,-1)"><tspan
               id="tspan852"
               y="0"
               x="0 5.5599999 8.3400002 13.9 19.459999">2.500</tspan></text>
</g></g></g><g
       id="g856"><g
         clip-path="url(#clipPath862)"
         id="g858"><g
           transform="matrix(0.5,0,0,0.5,25.41269,737.885)"
           id="g864"><text
             id="text868"
             style="font-variant:normal;font-weight:normal;font-size:10px;font-family:HelveticaNeue;-inkscape-font-specification:HelveticaNeue;writing-mode:lr-tb;fill:#000000;fill-opacity:1;fill-rule:nonzero;stroke:none"
             transform="scale(1,-1)"><tspan
               id="tspan866"
               y="0"
               x="0 5.5599999 8.3400002 13.9 19.459999">5.000</tspan></text>
</g></g></g><g
       id="g870"><g
         clip-path="url(#clipPath876)"
         id="g872"><g
           transform="matrix(0.5,0,0,0.5,25.41269,764.01)"
           id="g878"><text
             id="text882"
             style="font-variant:normal;font-weight:normal;font-size:10px;font-family:HelveticaNeue;-inkscape-font-specification:HelveticaNeue;writing-mode:lr-tb;fill:#000000;fill-opacity:1;fill-rule:nonzero;stroke:none"
             transform="scale(1,-1)"><tspan
               id="tspan880"
               y="0"
               x="0 5.5599999 8.3400002 13.9 19.459999">7.500</tspan></text>
</g></g></g><g
       id="g884"><g
         clip-path="url(#clipPath890)"
         id="g886"><g
           transform="matrix(0.5,0,0,0.5,22.63269,790.135)"
           id="g892"><text
             id="text896"
             style="font-variant:normal;font-weight:normal;font-size:10px;font-family:HelveticaNeue;-inkscape-font-specification:HelveticaNeue;writing-mode:lr-tb;fill:#000000;fill-opacity:1;fill-rule:nonzero;stroke:none"
             transform="scale(1,-1)"><tspan
               id="tspan894"
               y="0"
               x="0 5.5599999 11.12 13.9 19.459999 25.02">10.000</tspan></text>
</g></g></g><g
       id="g898"><g
         clip-path="url(#clipPath904)"
         id="g900"><g
           transform="matrix(0.5,0,0,-0.5,22.38269,804.692)"
           id="g906"><path
             id="path908"
             style="fill:none;stroke:#000000;stroke-width:1;stroke-linecap:square;stroke-linejoin:miter;stroke-miterlimit:4;stroke-dasharray:none;stroke-opacity:1"
             d="M 42.23463,234.384 H 622.2346" /></g></g></g><g
       id="g910"><g
         clip-path="url(#clipPath916)"
         id="g912"><g
           transform="matrix(0.5,0,0,0.5,100.1077,680.5425)"
           id="g918"><text
             id="text922"
             style="font-variant:normal;font-weight:normal;font-size:10px;font-family:HelveticaNeue;-inkscape-font-specification:HelveticaNeue;writing-mode:lr-tb;fill:#000000;fill-opacity:1;fill-rule:nonzero;stroke:none"
             transform="scale(1,-1)"><tspan
               id="tspan920"
               y="0"
               x="0 7.2199998 12.96 16.110001 21.48 24.26 26.48 32.040001 35.93 41.490002 47.049999 52.610001 58.169998">Core i7-7700T</tspan></text>
</g></g></g><g
       id="g924"><g
         clip-path="url(#clipPath930)"
         id="g926"><g
           transform="matrix(0.5,0,0,0.5,244.3227,680.5425)"
           id="g932"><text
             id="text936"
             style="font-variant:normal;font-weight:normal;font-size:10px;font-family:HelveticaNeue;-inkscape-font-specification:HelveticaNeue;writing-mode:lr-tb;fill:#000000;fill-opacity:1;fill-rule:nonzero;stroke:none"
             transform="scale(1,-1)"><tspan
               id="tspan934"
               y="0"
               x="0 6.8499999 11.85 16.65 22.02 27.58 30.360001 35.919998 38.700001 44.259998 49.82 55.380001 60.939999">Ryzen 7 2700X</tspan></text>
</g></g></g><g
       id="g938"><g
         clip-path="url(#clipPath944)"
         id="g940"><g
           transform="matrix(1,0,0,-1,119,710)"
           id="g946"><g
             id="g948" /><g
             id="g968"><g
               id="g966"
               clip-path="url(#clipPath952)"><g
                 id="g958" /><g
                 id="g964"><g
                   id="g962"
                   clip-path="url(#clipPath956)"><path
                     id="path960"
                     style="fill:#61d836;fill-opacity:1;fill-rule:nonzero;stroke:none"
                     d="M 0,0 H 58 V 22 H 0 Z" /></g></g></g></g></g></g></g><g
       id="g970"><g
         clip-path="url(#clipPath976)"
         id="g972"><g
           transform="matrix(1,0,0,-1,264,715)"
           id="g978"><g
             id="g980" /><g
             id="g1000"><g
               id="g998"
               clip-path="url(#clipPath984)"><g
                 id="g990" /><g
                 id="g996"><g
                   id="g994"
                   clip-path="url(#clipPath988)"><path
                     id="path992"
                     style="fill:#61d836;fill-opacity:1;fill-rule:nonzero;stroke:none"
                     d="M 0,0 H 58 V 27 H 0 Z" /></g></g></g></g></g></g></g><g
       id="g1002"><g
         clip-path="url(#clipPath1008)"
         id="g1004"><g
           transform="matrix(1,0,0,-1,55,722)"
           id="g1010"><g
             id="g1012" /><g
             id="g1032"><g
               id="g1030"
               clip-path="url(#clipPath1016)"><g
                 id="g1022" /><g
                 id="g1028"><g
                   id="g1026"
                   clip-path="url(#clipPath1020)"><path
                     id="path1024"
                     style="fill:#00a2ff;fill-opacity:1;fill-rule:nonzero;stroke:none"
                     d="M 0,0 H 58 V 34 H 0 Z" /></g></g></g></g></g></g></g><g
       id="g1034"><g
         clip-path="url(#clipPath1040)"
         id="g1036"><g
           transform="matrix(1,0,0,-1,200,787)"
           id="g1042"><g
             id="g1044" /><g
             id="g1064"><g
               id="g1062"
               clip-path="url(#clipPath1048)"><g
                 id="g1054" /><g
                 id="g1060"><g
                   id="g1058"
                   clip-path="url(#clipPath1052)"><path
                     id="path1056"
                     style="fill:#00a2ff;fill-opacity:1;fill-rule:nonzero;stroke:none"
                     d="M 0,0 H 58 V 99 H 0 Z" /></g></g></g></g></g></g></g><g
       id="g1066"><g
         clip-path="url(#clipPath1072)"
         id="g1068"><path
           id="path1074"
           style="fill:#00a2ff;fill-opacity:1;fill-rule:nonzero;stroke:none"
           d="m 139,670 h 5 v -4 h -5 z" /><g
           transform="matrix(0.5,0,0,0.5,147.1885,666.205)"
           id="g1076"><text
             id="text1080"
             style="font-variant:normal;font-weight:normal;font-size:10px;font-family:HelveticaNeue;-inkscape-font-specification:HelveticaNeue;writing-mode:lr-tb;fill:#000000;fill-opacity:1;fill-rule:nonzero;stroke:none"
             transform="scale(1,-1)"><tspan
               id="tspan1078"
               y="0"
               x="0 5.1900001 12.23">JDK</tspan></text>
</g><path
           id="path1082"
           style="fill:#61d836;fill-opacity:1;fill-rule:nonzero;stroke:none"
           d="m 192,670 h 5 v -4 h -5 z" /><g
           transform="matrix(0.5,0,0,0.5,199.9918,666.205)"
           id="g1084"><text
             id="text1088"
             style="font-variant:normal;font-weight:normal;font-size:10px;font-family:HelveticaNeue;-inkscape-font-specification:HelveticaNeue;writing-mode:lr-tb;fill:#000000;fill-opacity:1;fill-rule:nonzero;stroke:none"
             transform="scale(1,-1)"><tspan
               id="tspan1086"
               y="0"
               x="0 6.8499999 12.59 18.15 23.709999 29.08 34.080002 36.860001 44.080002 49.450001 54.450001 57.599998 59.82">Bouncy Castle</tspan></text>
</g></g></g></g></svg>