<?xml version="1.0" encoding="UTF-8" standalone="no"?>
<svg
   xmlns:dc="http://purl.org/dc/elements/1.1/"
   xmlns:cc="http://creativecommons.org/ns#"
   xmlns:rdf="http://www.w3.org/1999/02/22-rdf-syntax-ns#"
   xmlns:svg="http://www.w3.org/2000/svg"
   xmlns="http://www.w3.org/2000/svg"
   viewBox="0 0 793.33331 1122.6667"
   height="1122.6667"
   width="793.33331"
   xml:space="preserve"
   id="svg1386"
   version="1.1"><metadata
     id="metadata1392"><rdf:RDF><cc:Work
         rdf:about=""><dc:format>image/svg+xml</dc:format><dc:type
           rdf:resource="http://purl.org/dc/dcmitype/StillImage" /><dc:title></dc:title></cc:Work></rdf:RDF></metadata><defs
     id="defs1390"><clipPath
       id="clipPath1404"
       clipPathUnits="userSpaceOnUse"><path
         id="path1402"
         d="M 0,0 H 595 V 842 H 0 Z" /></clipPath><clipPath
       id="clipPath1416"
       clipPathUnits="userSpaceOnUse"><path
         id="path1414"
         d="m 43.08517,797.36 h 290.75 v 7.332 h -290.75 z" /></clipPath><clipPath
       id="clipPath1430"
       clipPathUnits="userSpaceOnUse"><path
         id="path1428"
         d="m 22.38269,665.14 h 311.4525 V 804.692 H 22.38269 Z" /></clipPath><clipPath
       id="clipPath1454"
       clipPathUnits="userSpaceOnUse"><path
         id="path1452"
         d="m 24.66269,684.07 h 14.01 v 6.86 h -14.01 z" /></clipPath><clipPath
       id="clipPath1468"
       clipPathUnits="userSpaceOnUse"><path
         id="path1466"
         d="m 24.66269,710.195 h 14.01 v 6.86 h -14.01 z" /></clipPath><clipPath
       id="clipPath1482"
       clipPathUnits="userSpaceOnUse"><path
         id="path1480"
         d="m 24.66269,736.32 h 14.01 v 6.86 h -14.01 z" /></clipPath><clipPath
       id="clipPath1496"
       clipPathUnits="userSpaceOnUse"><path
         id="path1494"
         d="m 24.66269,762.445 h 14.01 v 6.86 h -14.01 z" /></clipPath><clipPath
       id="clipPath1510"
       clipPathUnits="userSpaceOnUse"><path
         id="path1508"
         d="m 22.38269,788.57 h 16.29 v 6.86 h -16.29 z" /></clipPath><clipPath
       id="clipPath1524"
       clipPathUnits="userSpaceOnUse"><path
         id="path1522"
         d="m 22.38269,665.14 h 311.4525 V 804.692 H 22.38269 Z" /></clipPath><clipPath
       id="clipPath1536"
       clipPathUnits="userSpaceOnUse"><path
         id="path1534"
         d="m 99.35767,678.9775 h 33.455 v 6.86 h -33.455 z" /></clipPath><clipPath
       id="clipPath1550"
       clipPathUnits="userSpaceOnUse"><path
         id="path1548"
         d="m 243.5727,678.9775 h 35.025 v 6.86 h -35.025 z" /></clipPath><clipPath
       id="clipPath1564"
       clipPathUnits="userSpaceOnUse"><path
         id="path1562"
         d="m 119,688 h 58 v 22 h -58 z" /></clipPath><clipPath
       id="clipPath1572"
       clipPathUnits="userSpaceOnUse"><path
         id="path1570"
         d="M 0,0 H 58 V 22 H 0 Z" /></clipPath><clipPath
       id="clipPath1576"
       clipPathUnits="userSpaceOnUse"><path
         id="path1574"
         d="M 0,0 H 58 V 22 H 0 Z" /></clipPath><clipPath
       id="clipPath1596"
       clipPathUnits="userSpaceOnUse"><path
         id="path1594"
         d="m 264,688 h 59 v 27 h -59 z" /></clipPath><clipPath
       id="clipPath1604"
       clipPathUnits="userSpaceOnUse"><path
         id="path1602"
         d="M 0,0 H 59 V 27 H 0 Z" /></clipPath><clipPath
       id="clipPath1608"
       clipPathUnits="userSpaceOnUse"><path
         id="path1606"
         d="M 0,0 H 58 V 27 H 0 Z" /></clipPath><clipPath
       id="clipPath1628"
       clipPathUnits="userSpaceOnUse"><path
         id="path1626"
         d="m 55,688 h 58 v 34 H 55 Z" /></clipPath><clipPath
       id="clipPath1636"
       clipPathUnits="userSpaceOnUse"><path
         id="path1634"
         d="M 0,0 H 58 V 34 H 0 Z" /></clipPath><clipPath
       id="clipPath1640"
       clipPathUnits="userSpaceOnUse"><path
         id="path1638"
         d="M 0,0 H 58 V 34 H 0 Z" /></clipPath><clipPath
       id="clipPath1660"
       clipPathUnits="userSpaceOnUse"><path
         id="path1658"
         d="m 200,688 h 58 v 99 h -58 z" /></clipPath><clipPath
       id="clipPath1668"
       clipPathUnits="userSpaceOnUse"><path
         id="path1666"
         d="M 0,0 H 58 V 99 H 0 Z" /></clipPath><clipPath
       id="clipPath1672"
       clipPathUnits="userSpaceOnUse"><path
         id="path1670"
         d="M 0,0 H 58 V 99 H 0 Z" /></clipPath><clipPath
       id="clipPath1692"
       clipPathUnits="userSpaceOnUse"><path
         id="path1690"
         d="m 22.38269,665.14 h 311.4525 V 804.692 H 22.38269 Z" /></clipPath><clipPath
       id="clipPath1716"
       clipPathUnits="userSpaceOnUse"><path
         id="path1714"
         d="m 35,605.2 h 187 v 46 H 35 Z" /></clipPath><clipPath
       id="clipPath1746"
       clipPathUnits="userSpaceOnUse"><path
         id="path1744"
         d="m 110.0893,626.3881 h 54.8451 v 9.85496 h -54.8451 z" /></clipPath><clipPath
       id="clipPath1760"
       clipPathUnits="userSpaceOnUse"><path
         id="path1758"
         d="m 165.1094,626.3881 h 55.98358 v 9.85496 H 165.1094 Z" /></clipPath><clipPath
       id="clipPath1774"
       clipPathUnits="userSpaceOnUse"><path
         id="path1772"
         d="m 36.0875,616.1531 h 73.72684 v 9.86 H 36.0875 Z" /></clipPath><clipPath
       id="clipPath1788"
       clipPathUnits="userSpaceOnUse"><path
         id="path1786"
         d="m 110.1893,616.1531 h 54.7451 v 9.86 h -54.7451 z" /></clipPath><clipPath
       id="clipPath1802"
       clipPathUnits="userSpaceOnUse"><path
         id="path1800"
         d="m 165.1094,616.1531 h 55.98358 v 9.86 H 165.1094 Z" /></clipPath><clipPath
       id="clipPath1816"
       clipPathUnits="userSpaceOnUse"><path
         id="path1814"
         d="m 36.0875,606.1181 h 73.72684 v 9.86 H 36.0875 Z" /></clipPath><clipPath
       id="clipPath1830"
       clipPathUnits="userSpaceOnUse"><path
         id="path1828"
         d="m 110.1893,606.1181 h 54.7451 v 9.86 h -54.7451 z" /></clipPath><clipPath
       id="clipPath1844"
       clipPathUnits="userSpaceOnUse"><path
         id="path1842"
         d="m 165.1094,606.1181 h 55.98358 v 9.86 H 165.1094 Z" /></clipPath><clipPath
       id="clipPath1858"
       clipPathUnits="userSpaceOnUse"><path
         id="path1856"
         d="m 35,605.2 h 187 v 46 H 35 Z" /></clipPath><clipPath
       id="clipPath1922"
       clipPathUnits="userSpaceOnUse"><path
         id="path1920"
         d="m 290.419,18 h 14.16196 V 39.49498 H 290.419 Z" /></clipPath></defs><g
     transform="matrix(1.3333333,0,0,-1.3333333,0,1122.6667)"
     id="g1394"><g
       id="g1396" /><g
       id="g1410"><g
         clip-path="url(#clipPath1416)"
         id="g1412"><g
           transform="matrix(0.5,0,0,0.5,176.3602,799.138)"
           id="g1418"><text
             id="text1422"
             style="font-variant:normal;font-weight:normal;font-size:12px;font-family:HelveticaNeue;-inkscape-font-specification:HelveticaNeue;writing-mode:lr-tb;fill:#000000;fill-opacity:1;fill-rule:nonzero;stroke:none"
             transform="scale(1,-1)"><tspan
               id="tspan1420"
               y="0"
               x="0 7.776 16.440001 24.216 28.884001 35.556 42.228001">SHA-256</tspan></text>
</g></g></g><g
       id="g1424"><g
         clip-path="url(#clipPath1430)"
         id="g1426"><g
           transform="matrix(0.5,0,0,-0.5,22.38269,804.692)"
           id="g1432"><path
             id="path1434"
             style="fill:none;stroke:#b8b8b8;stroke-width:0.5;stroke-linecap:butt;stroke-linejoin:miter;stroke-miterlimit:4;stroke-dasharray:none;stroke-opacity:1"
             d="M 43.23463,182.384 H 623.2346" /></g><g
           transform="matrix(0.5,0,0,-0.5,22.38269,804.692)"
           id="g1436"><path
             id="path1438"
             style="fill:none;stroke:#b8b8b8;stroke-width:0.5;stroke-linecap:butt;stroke-linejoin:miter;stroke-miterlimit:4;stroke-dasharray:none;stroke-opacity:1"
             d="M 43.23463,130.384 H 623.2346" /></g><g
           transform="matrix(0.5,0,0,-0.5,22.38269,804.692)"
           id="g1440"><path
             id="path1442"
             style="fill:none;stroke:#b8b8b8;stroke-width:0.5;stroke-linecap:butt;stroke-linejoin:miter;stroke-miterlimit:4;stroke-dasharray:none;stroke-opacity:1"
             d="M 43.23463,78.384 H 623.2346" /></g><g
           transform="matrix(0.5,0,0,-0.5,22.38269,804.692)"
           id="g1444"><path
             id="path1446"
             style="fill:none;stroke:#b8b8b8;stroke-width:0.5;stroke-linecap:butt;stroke-linejoin:miter;stroke-miterlimit:4;stroke-dasharray:none;stroke-opacity:1"
             d="M 43.23463,24.384 H 623.2346" /></g></g></g><g
       id="g1448"><g
         clip-path="url(#clipPath1454)"
         id="g1450"><g
           transform="matrix(0.5,0,0,0.5,25.41269,685.635)"
           id="g1456"><text
             id="text1460"
             style="font-variant:normal;font-weight:normal;font-size:10px;font-family:HelveticaNeue;-inkscape-font-specification:HelveticaNeue;writing-mode:lr-tb;fill:#000000;fill-opacity:1;fill-rule:nonzero;stroke:none"
             transform="scale(1,-1)"><tspan
               id="tspan1458"
               y="0"
               x="0 5.5599999 8.3400002 13.9 19.459999">0.000</tspan></text>
</g></g></g><g
       id="g1462"><g
         clip-path="url(#clipPath1468)"
         id="g1464"><g
           transform="matrix(0.5,0,0,0.5,25.41269,711.76)"
           id="g1470"><text
             id="text1474"
             style="font-variant:normal;font-weight:normal;font-size:10px;font-family:HelveticaNeue;-inkscape-font-specification:HelveticaNeue;writing-mode:lr-tb;fill:#000000;fill-opacity:1;fill-rule:nonzero;stroke:none"
             transform="scale(1,-1)"><tspan
               id="tspan1472"
               y="0"
               x="0 5.5599999 8.3400002 13.9 19.459999">2.500</tspan></text>
</g></g></g><g
       id="g1476"><g
         clip-path="url(#clipPath1482)"
         id="g1478"><g
           transform="matrix(0.5,0,0,0.5,25.41269,737.885)"
           id="g1484"><text
             id="text1488"
             style="font-variant:normal;font-weight:normal;font-size:10px;font-family:HelveticaNeue;-inkscape-font-specification:HelveticaNeue;writing-mode:lr-tb;fill:#000000;fill-opacity:1;fill-rule:nonzero;stroke:none"
             transform="scale(1,-1)"><tspan
               id="tspan1486"
               y="0"
               x="0 5.5599999 8.3400002 13.9 19.459999">5.000</tspan></text>
</g></g></g><g
       id="g1490"><g
         clip-path="url(#clipPath1496)"
         id="g1492"><g
           transform="matrix(0.5,0,0,0.5,25.41269,764.01)"
           id="g1498"><text
             id="text1502"
             style="font-variant:normal;font-weight:normal;font-size:10px;font-family:HelveticaNeue;-inkscape-font-specification:HelveticaNeue;writing-mode:lr-tb;fill:#000000;fill-opacity:1;fill-rule:nonzero;stroke:none"
             transform="scale(1,-1)"><tspan
               id="tspan1500"
               y="0"
               x="0 5.5599999 8.3400002 13.9 19.459999">7.500</tspan></text>
</g></g></g><g
       id="g1504"><g
         clip-path="url(#clipPath1510)"
         id="g1506"><g
           transform="matrix(0.5,0,0,0.5,22.63269,790.135)"
           id="g1512"><text
             id="text1516"
             style="font-variant:normal;font-weight:normal;font-size:10px;font-family:HelveticaNeue;-inkscape-font-specification:HelveticaNeue;writing-mode:lr-tb;fill:#000000;fill-opacity:1;fill-rule:nonzero;stroke:none"
             transform="scale(1,-1)"><tspan
               id="tspan1514"
               y="0"
               x="0 5.5599999 11.12 13.9 19.459999 25.02">10.000</tspan></text>
</g></g></g><g
       id="g1518"><g
         clip-path="url(#clipPath1524)"
         id="g1520"><g
           transform="matrix(0.5,0,0,-0.5,22.38269,804.692)"
           id="g1526"><path
             id="path1528"
             style="fill:none;stroke:#000000;stroke-width:1;stroke-linecap:square;stroke-linejoin:miter;stroke-miterlimit:4;stroke-dasharray:none;stroke-opacity:1"
             d="M 42.23463,234.384 H 622.2346" /></g></g></g><g
       id="g1530"><g
         clip-path="url(#clipPath1536)"
         id="g1532"><g
           transform="matrix(0.5,0,0,0.5,100.1077,680.5425)"
           id="g1538"><text
             id="text1542"
             style="font-variant:normal;font-weight:normal;font-size:10px;font-family:HelveticaNeue;-inkscape-font-specification:HelveticaNeue;writing-mode:lr-tb;fill:#000000;fill-opacity:1;fill-rule:nonzero;stroke:none"
             transform="scale(1,-1)"><tspan
               id="tspan1540"
               y="0"
               x="0 7.2199998 12.96 16.110001 21.48 24.26 26.48 32.040001 35.93 41.490002 47.049999 52.610001 58.169998">Core i7-7700T</tspan></text>
</g></g></g><g
       id="g1544"><g
         clip-path="url(#clipPath1550)"
         id="g1546"><g
           transform="matrix(0.5,0,0,0.5,244.3227,680.5425)"
           id="g1552"><text
             id="text1556"
             style="font-variant:normal;font-weight:normal;font-size:10px;font-family:HelveticaNeue;-inkscape-font-specification:HelveticaNeue;writing-mode:lr-tb;fill:#000000;fill-opacity:1;fill-rule:nonzero;stroke:none"
             transform="scale(1,-1)"><tspan
               id="tspan1554"
               y="0"
               x="0 6.8499999 11.85 16.65 22.02 27.58 30.360001 35.919998 38.700001 44.259998 49.82 55.380001 60.939999">Ryzen 7 2700X</tspan></text>
</g></g></g><g
       id="g1558"><g
         clip-path="url(#clipPath1564)"
         id="g1560"><g
           transform="matrix(1,0,0,-1,119,710)"
           id="g1566"><g
             id="g1568" /><g
             id="g1588"><g
               id="g1586"
               clip-path="url(#clipPath1572)"><g
                 id="g1578" /><g
                 id="g1584"><g
                   id="g1582"
                   clip-path="url(#clipPath1576)"><path
                     id="path1580"
                     style="fill:#61d836;fill-opacity:1;fill-rule:nonzero;stroke:none"
                     d="M 0,0 H 58 V 22 H 0 Z" /></g></g></g></g></g></g></g><g
       id="g1590"><g
         clip-path="url(#clipPath1596)"
         id="g1592"><g
           transform="matrix(1,0,0,-1,264,715)"
           id="g1598"><g
             id="g1600" /><g
             id="g1620"><g
               id="g1618"
               clip-path="url(#clipPath1604)"><g
                 id="g1610" /><g
                 id="g1616"><g
                   id="g1614"
                   clip-path="url(#clipPath1608)"><path
                     id="path1612"
                     style="fill:#61d836;fill-opacity:1;fill-rule:nonzero;stroke:none"
                     d="M 0,0 H 58 V 27 H 0 Z" /></g></g></g></g></g></g></g><g
       id="g1622"><g
         clip-path="url(#clipPath1628)"
         id="g1624"><g
           transform="matrix(1,0,0,-1,55,722)"
           id="g1630"><g
             id="g1632" /><g
             id="g1652"><g
               id="g1650"
               clip-path="url(#clipPath1636)"><g
                 id="g1642" /><g
                 id="g1648"><g
                   id="g1646"
                   clip-path="url(#clipPath1640)"><path
                     id="path1644"
                     style="fill:#00a2ff;fill-opacity:1;fill-rule:nonzero;stroke:none"
                     d="M 0,0 H 58 V 34 H 0 Z" /></g></g></g></g></g></g></g><g
       id="g1654"><g
         clip-path="url(#clipPath1660)"
         id="g1656"><g
           transform="matrix(1,0,0,-1,200,787)"
           id="g1662"><g
             id="g1664" /><g
             id="g1684"><g
               id="g1682"
               clip-path="url(#clipPath1668)"><g
                 id="g1674" /><g
                 id="g1680"><g
                   id="g1678"
                   clip-path="url(#clipPath1672)"><path
                     id="path1676"
                     style="fill:#00a2ff;fill-opacity:1;fill-rule:nonzero;stroke:none"
                     d="M 0,0 H 58 V 99 H 0 Z" /></g></g></g></g></g></g></g><g
       id="g1686"><g
         clip-path="url(#clipPath1692)"
         id="g1688"><path
           id="path1694"
           style="fill:#00a2ff;fill-opacity:1;fill-rule:nonzero;stroke:none"
           d="m 139,670 h 5 v -4 h -5 z" /><g
           transform="matrix(0.5,0,0,0.5,147.1885,666.205)"
           id="g1696"><text
             id="text1700"
             style="font-variant:normal;font-weight:normal;font-size:10px;font-family:HelveticaNeue;-inkscape-font-specification:HelveticaNeue;writing-mode:lr-tb;fill:#000000;fill-opacity:1;fill-rule:nonzero;stroke:none"
             transform="scale(1,-1)"><tspan
               id="tspan1698"
               y="0"
               x="0 5.1900001 12.23">JDK</tspan></text>
</g><path
           id="path1702"
           style="fill:#61d836;fill-opacity:1;fill-rule:nonzero;stroke:none"
           d="m 192,670 h 5 v -4 h -5 z" /><g
           transform="matrix(0.5,0,0,0.5,199.9918,666.205)"
           id="g1704"><text
             id="text1708"
             style="font-variant:normal;font-weight:normal;font-size:10px;font-family:HelveticaNeue;-inkscape-font-specification:HelveticaNeue;writing-mode:lr-tb;fill:#000000;fill-opacity:1;fill-rule:nonzero;stroke:none"
             transform="scale(1,-1)"><tspan
               id="tspan1706"
               y="0"
               x="0 6.8499999 12.59 18.15 23.709999 29.08 34.080002 36.860001 44.080002 49.450001 54.450001 57.599998 59.82">Bouncy Castle</tspan></text>
</g></g></g><g
       id="g1916"><g
         clip-path="url(#clipPath1922)"
         id="g1918"><g
           transform="matrix(0.5,0,0,0.5,293.914,24.39197)"
           id="g1924"><text
             id="text1928"
             style="font-variant:normal;font-weight:normal;font-size:24px;font-family:HelveticaNeue;-inkscape-font-specification:HelveticaNeue;writing-mode:lr-tb;fill:#000000;fill-opacity:1;fill-rule:nonzero;stroke:none"
             transform="scale(1,-1)"><tspan
               id="tspan1926"
               y="0"
               x="0">2</tspan></text>
</g></g></g></g></svg>